<svg xmlns="http://www.w3.org/2000/svg" xmlns:xlink="http://www.w3.org/1999/xlink" width="500" zoomAndPan="magnify" viewBox="0 0 375 374.999991" height="500" preserveAspectRatio="xMidYMid meet" version="1.0"><defs><g/><clipPath id="038bb7ff7e"><path d="M 76 4 L 86 4 L 86 14 L 76 14 Z M 76 4 " clip-rule="nonzero"/></clipPath><clipPath id="143c044655"><path d="M 83.039062 1.105469 L 88.046875 8.734375 L 81.382812 13.109375 L 76.375 5.480469 Z M 83.039062 1.105469 " clip-rule="nonzero"/></clipPath><clipPath id="a0a1d6de27"><path d="M 85.539062 4.914062 L 81.375 13.097656 L 76.375 5.480469 Z M 85.539062 4.914062 " clip-rule="nonzero"/></clipPath><clipPath id="45a69b5f8d"><path d="M 0.28125 0.761719 L 9.640625 0.761719 L 9.640625 9.160156 L 0.28125 9.160156 Z M 0.28125 0.761719 " clip-rule="nonzero"/></clipPath><clipPath id="432490669c"><path d="M 7.039062 -2.894531 L 12.046875 4.734375 L 5.382812 9.109375 L 0.375 1.480469 Z M 7.039062 -2.894531 " clip-rule="nonzero"/></clipPath><clipPath id="2a8fe65717"><path d="M 9.539062 0.914062 L 5.375 9.097656 L 0.375 1.480469 Z M 9.539062 0.914062 " clip-rule="nonzero"/></clipPath><clipPath id="e4f0a47d52"><rect x="0" width="10" y="0" height="10"/></clipPath><clipPath id="49d5178782"><path d="M 66 5 L 83 5 L 83 19 L 66 19 Z M 66 5 " clip-rule="nonzero"/></clipPath><clipPath id="3023435e69"><path d="M 78.359375 3.332031 L 84.136719 12.289062 L 70.597656 21.027344 L 64.820312 12.070312 Z M 78.359375 3.332031 " clip-rule="nonzero"/></clipPath><clipPath id="9978fbf9d0"><path d="M 81.246094 7.8125 C 82.84375 10.285156 82.132812 13.582031 79.660156 15.179688 L 75.101562 18.121094 C 72.628906 19.71875 69.328125 19.007812 67.734375 16.53125 C 66.136719 14.058594 66.847656 10.761719 69.320312 9.167969 L 73.878906 6.222656 C 76.351562 4.628906 79.652344 5.339844 81.246094 7.8125 Z M 81.246094 7.8125 " clip-rule="nonzero"/></clipPath><clipPath id="4e39c18967"><path d="M 0 0 L 17 0 L 17 14 L 0 14 Z M 0 0 " clip-rule="nonzero"/></clipPath><clipPath id="1674a7436a"><path d="M 12.359375 -1.667969 L 18.136719 7.289062 L 4.597656 16.027344 L -1.179688 7.070312 Z M 12.359375 -1.667969 " clip-rule="nonzero"/></clipPath><clipPath id="57ea314bf6"><path d="M 15.246094 2.8125 C 16.84375 5.285156 16.132812 8.582031 13.660156 10.179688 L 9.101562 13.121094 C 6.628906 14.71875 3.328125 14.007812 1.734375 11.53125 C 0.136719 9.058594 0.847656 5.761719 3.320312 4.167969 L 7.878906 1.222656 C 10.351562 -0.371094 13.652344 0.339844 15.246094 2.8125 Z M 15.246094 2.8125 " clip-rule="nonzero"/></clipPath><clipPath id="fd11f56a9e"><rect x="0" width="17" y="0" height="14"/></clipPath><clipPath id="6fb51ea3f6"><path d="M 3 46 L 17 46 L 17 58 L 3 58 Z M 3 46 " clip-rule="nonzero"/></clipPath><clipPath id="1ede9b745d"><path d="M 3.714844 50.511719 L 14.160156 43.585938 L 19.042969 50.953125 L 8.597656 57.878906 Z M 3.714844 50.511719 " clip-rule="nonzero"/></clipPath><clipPath id="0bc5528073"><path d="M 3.714844 50.511719 L 10.449219 46.046875 L 16.574219 47.289062 L 15.332031 53.414062 L 8.597656 57.878906 L 9.839844 51.753906 Z M 3.714844 50.511719 " clip-rule="nonzero"/></clipPath><clipPath id="8e7b831bba"><path d="M 0.558594 0.0390625 L 13.761719 0.0390625 L 13.761719 12 L 0.558594 12 Z M 0.558594 0.0390625 " clip-rule="nonzero"/></clipPath><clipPath id="5c7e391aa0"><path d="M 0.714844 4.511719 L 11.160156 -2.414062 L 16.042969 4.953125 L 5.597656 11.878906 Z M 0.714844 4.511719 " clip-rule="nonzero"/></clipPath><clipPath id="5faeff2dd8"><path d="M 0.714844 4.511719 L 7.449219 0.046875 L 13.574219 1.289062 L 12.332031 7.414062 L 5.597656 11.878906 L 6.839844 5.753906 Z M 0.714844 4.511719 " clip-rule="nonzero"/></clipPath><clipPath id="981fbefb27"><rect x="0" width="14" y="0" height="12"/></clipPath><clipPath id="143f8a7d31"><path d="M 1 52 L 5 52 L 5 55 L 1 55 Z M 1 52 " clip-rule="nonzero"/></clipPath><clipPath id="02f94bbb35"><path d="M 2.097656 52.132812 L 4.53125 53 L 3.882812 54.820312 L 1.449219 53.957031 Z M 2.097656 52.132812 " clip-rule="nonzero"/></clipPath><clipPath id="1292e0d2f0"><path d="M 2.707031 52.351562 L 4.527344 52.996094 L 3.273438 54.601562 L 1.449219 53.957031 Z M 2.707031 52.351562 " clip-rule="nonzero"/></clipPath><clipPath id="013cbc21c6"><path d="M 0.398438 0.28125 L 3.761719 0.28125 L 3.761719 2.679688 L 0.398438 2.679688 Z M 0.398438 0.28125 " clip-rule="nonzero"/></clipPath><clipPath id="d20ee5fc75"><path d="M 1.097656 0.132812 L 3.53125 1 L 2.882812 2.820312 L 0.449219 1.957031 Z M 1.097656 0.132812 " clip-rule="nonzero"/></clipPath><clipPath id="5a3b1edb14"><path d="M 1.707031 0.351562 L 3.527344 0.996094 L 2.273438 2.601562 L 0.449219 1.957031 Z M 1.707031 0.351562 " clip-rule="nonzero"/></clipPath><clipPath id="9662c8bf7c"><rect x="0" width="4" y="0" height="3"/></clipPath><clipPath id="e7087aa87c"><path d="M 2 55 L 7 55 L 7 58 L 2 58 Z M 2 55 " clip-rule="nonzero"/></clipPath><clipPath id="558dc296a3"><path d="M 3.355469 54.820312 L 6.128906 55.804688 L 5.390625 57.882812 L 2.617188 56.894531 Z M 3.355469 54.820312 " clip-rule="nonzero"/></clipPath><clipPath id="678ec2df6c"><path d="M 4.046875 55.066406 L 6.121094 55.804688 L 4.691406 57.632812 L 2.617188 56.894531 Z M 4.046875 55.066406 " clip-rule="nonzero"/></clipPath><clipPath id="23087bef78"><path d="M 0.601562 0 L 4.199219 0 L 4.199219 2.800781 L 0.601562 2.800781 Z M 0.601562 0 " clip-rule="nonzero"/></clipPath><clipPath id="a1c16edeb6"><path d="M 1.355469 -0.179688 L 4.128906 0.804688 L 3.390625 2.882812 L 0.617188 1.894531 Z M 1.355469 -0.179688 " clip-rule="nonzero"/></clipPath><clipPath id="33c1814cf5"><path d="M 2.046875 0.0664062 L 4.121094 0.804688 L 2.691406 2.632812 L 0.617188 1.894531 Z M 2.046875 0.0664062 " clip-rule="nonzero"/></clipPath><clipPath id="8b747f117a"><rect x="0" width="5" y="0" height="3"/></clipPath><clipPath id="7c81db4286"><path d="M 4 52 L 9 52 L 9 56 L 4 56 Z M 4 52 " clip-rule="nonzero"/></clipPath><clipPath id="e9edfb96eb"><path d="M 5.238281 52.136719 L 8.511719 53.300781 L 7.640625 55.75 L 4.367188 54.585938 Z M 5.238281 52.136719 " clip-rule="nonzero"/></clipPath><clipPath id="398937dfdf"><path d="M 6.054688 52.425781 L 8.503906 53.296875 L 6.816406 55.457031 L 4.367188 54.585938 Z M 6.054688 52.425781 " clip-rule="nonzero"/></clipPath><clipPath id="a8c253e720"><path d="M 0.28125 0.28125 L 4.601562 0.28125 L 4.601562 3.640625 L 0.28125 3.640625 Z M 0.28125 0.28125 " clip-rule="nonzero"/></clipPath><clipPath id="cc26f8eead"><path d="M 1.238281 0.136719 L 4.511719 1.300781 L 3.640625 3.75 L 0.367188 2.585938 Z M 1.238281 0.136719 " clip-rule="nonzero"/></clipPath><clipPath id="bbf5d0727a"><path d="M 2.054688 0.425781 L 4.503906 1.296875 L 2.816406 3.457031 L 0.367188 2.585938 Z M 2.054688 0.425781 " clip-rule="nonzero"/></clipPath><clipPath id="4b3c13ffe6"><rect x="0" width="5" y="0" height="4"/></clipPath><clipPath id="e388396670"><path d="M 0.679688 54 L 3 54 L 3 57 L 0.679688 57 Z M 0.679688 54 " clip-rule="nonzero"/></clipPath><clipPath id="55f9828b03"><path d="M 1.179688 54.757812 L 2.617188 55.269531 L 2.234375 56.347656 L 0.796875 55.835938 Z M 1.179688 54.757812 " clip-rule="nonzero"/></clipPath><clipPath id="0b8bd00544"><path d="M 1.535156 54.886719 L 2.613281 55.269531 L 1.871094 56.21875 L 0.796875 55.835938 Z M 1.535156 54.886719 " clip-rule="nonzero"/></clipPath><clipPath id="838752f81c"><path d="M 0.679688 0.679688 L 2.839844 0.679688 L 2.839844 2.359375 L 0.679688 2.359375 Z M 0.679688 0.679688 " clip-rule="nonzero"/></clipPath><clipPath id="2fd11bf13c"><path d="M 1.179688 0.757812 L 2.617188 1.269531 L 2.234375 2.347656 L 0.796875 1.835938 Z M 1.179688 0.757812 " clip-rule="nonzero"/></clipPath><clipPath id="e2c697972b"><path d="M 1.535156 0.886719 L 2.613281 1.269531 L 1.871094 2.21875 L 0.796875 1.835938 Z M 1.535156 0.886719 " clip-rule="nonzero"/></clipPath><clipPath id="6e7f9100e8"><rect x="0" width="3" y="0" height="3"/></clipPath><clipPath id="3035612167"><path d="M 11.363281 9.386719 L 76.410156 9.386719 L 76.410156 52.527344 L 11.363281 52.527344 Z M 11.363281 9.386719 " clip-rule="nonzero"/></clipPath><clipPath id="efd4e86fb5"><path d="M 18.863281 9.386719 L 68.875 9.386719 C 70.863281 9.386719 72.769531 10.179688 74.179688 11.585938 C 75.585938 12.992188 76.375 14.898438 76.375 16.886719 L 76.375 45.027344 C 76.375 47.019531 75.585938 48.925781 74.179688 50.332031 C 72.769531 51.738281 70.863281 52.527344 68.875 52.527344 L 18.863281 52.527344 C 16.875 52.527344 14.964844 51.738281 13.558594 50.332031 C 12.152344 48.925781 11.363281 47.019531 11.363281 45.027344 L 11.363281 16.886719 C 11.363281 14.898438 12.152344 12.992188 13.558594 11.585938 C 14.964844 10.179688 16.875 9.386719 18.863281 9.386719 Z M 18.863281 9.386719 " clip-rule="nonzero"/></clipPath><clipPath id="fd48f44699"><path d="M 0.363281 0.386719 L 65.410156 0.386719 L 65.410156 43.527344 L 0.363281 43.527344 Z M 0.363281 0.386719 " clip-rule="nonzero"/></clipPath><clipPath id="43e971ff68"><path d="M 7.863281 0.386719 L 57.875 0.386719 C 59.863281 0.386719 61.769531 1.179688 63.179688 2.585938 C 64.585938 3.992188 65.375 5.898438 65.375 7.886719 L 65.375 36.027344 C 65.375 38.019531 64.585938 39.925781 63.179688 41.332031 C 61.769531 42.738281 59.863281 43.527344 57.875 43.527344 L 7.863281 43.527344 C 5.875 43.527344 3.964844 42.738281 2.558594 41.332031 C 1.152344 39.925781 0.363281 38.019531 0.363281 36.027344 L 0.363281 7.886719 C 0.363281 5.898438 1.152344 3.992188 2.558594 2.585938 C 3.964844 1.179688 5.875 0.386719 7.863281 0.386719 Z M 7.863281 0.386719 " clip-rule="nonzero"/></clipPath><clipPath id="701eadcfb7"><rect x="0" width="66" y="0" height="44"/></clipPath><clipPath id="f440e2c731"><path d="M 17.820312 36.726562 L 69.964844 36.726562 L 69.964844 57.949219 L 17.820312 57.949219 Z M 17.820312 36.726562 " clip-rule="nonzero"/></clipPath><clipPath id="1aeb51ccbf"><path d="M 23.820312 36.726562 L 63.917969 36.726562 C 65.507812 36.726562 67.035156 37.359375 68.160156 38.484375 C 69.285156 39.609375 69.917969 41.136719 69.917969 42.726562 L 69.917969 51.949219 C 69.917969 53.539062 69.285156 55.066406 68.160156 56.191406 C 67.035156 57.316406 65.507812 57.949219 63.917969 57.949219 L 23.820312 57.949219 C 22.226562 57.949219 20.703125 57.316406 19.578125 56.191406 C 18.453125 55.066406 17.820312 53.539062 17.820312 51.949219 L 17.820312 42.726562 C 17.820312 41.136719 18.453125 39.609375 19.578125 38.484375 C 20.703125 37.359375 22.226562 36.726562 23.820312 36.726562 Z M 23.820312 36.726562 " clip-rule="nonzero"/></clipPath><clipPath id="e3b8a093dc"><path d="M 0.820312 0.726562 L 52.964844 0.726562 L 52.964844 21.949219 L 0.820312 21.949219 Z M 0.820312 0.726562 " clip-rule="nonzero"/></clipPath><clipPath id="6b05dc252a"><path d="M 6.820312 0.726562 L 46.917969 0.726562 C 48.507812 0.726562 50.035156 1.359375 51.160156 2.484375 C 52.285156 3.609375 52.917969 5.136719 52.917969 6.726562 L 52.917969 15.949219 C 52.917969 17.539062 52.285156 19.066406 51.160156 20.191406 C 50.035156 21.316406 48.507812 21.949219 46.917969 21.949219 L 6.820312 21.949219 C 5.226562 21.949219 3.703125 21.316406 2.578125 20.191406 C 1.453125 19.066406 0.820312 17.539062 0.820312 15.949219 L 0.820312 6.726562 C 0.820312 5.136719 1.453125 3.609375 2.578125 2.484375 C 3.703125 1.359375 5.226562 0.726562 6.820312 0.726562 Z M 6.820312 0.726562 " clip-rule="nonzero"/></clipPath><clipPath id="e3f2693542"><rect x="0" width="53" y="0" height="22"/></clipPath><clipPath id="2d091c3758"><path d="M 24.773438 2.699219 L 62.964844 2.699219 L 62.964844 19.355469 L 24.773438 19.355469 Z M 24.773438 2.699219 " clip-rule="nonzero"/></clipPath><clipPath id="8ecf9a30ed"><path d="M 30.773438 2.699219 L 56.964844 2.699219 C 58.554688 2.699219 60.082031 3.332031 61.207031 4.457031 C 62.332031 5.582031 62.964844 7.109375 62.964844 8.699219 L 62.964844 13.355469 C 62.964844 14.949219 62.332031 16.472656 61.207031 17.597656 C 60.082031 18.726562 58.554688 19.355469 56.964844 19.355469 L 30.773438 19.355469 C 29.179688 19.355469 27.65625 18.726562 26.53125 17.597656 C 25.40625 16.472656 24.773438 14.949219 24.773438 13.355469 L 24.773438 8.699219 C 24.773438 7.109375 25.40625 5.582031 26.53125 4.457031 C 27.65625 3.332031 29.179688 2.699219 30.773438 2.699219 Z M 30.773438 2.699219 " clip-rule="nonzero"/></clipPath><clipPath id="3aa42d299f"><path d="M 0.773438 0.699219 L 38.964844 0.699219 L 38.964844 17.355469 L 0.773438 17.355469 Z M 0.773438 0.699219 " clip-rule="nonzero"/></clipPath><clipPath id="505024b5e7"><path d="M 6.773438 0.699219 L 32.964844 0.699219 C 34.554688 0.699219 36.082031 1.332031 37.207031 2.457031 C 38.332031 3.582031 38.964844 5.109375 38.964844 6.699219 L 38.964844 11.355469 C 38.964844 12.949219 38.332031 14.472656 37.207031 15.597656 C 36.082031 16.726562 34.554688 17.355469 32.964844 17.355469 L 6.773438 17.355469 C 5.179688 17.355469 3.65625 16.726562 2.53125 15.597656 C 1.40625 14.472656 0.773438 12.949219 0.773438 11.355469 L 0.773438 6.699219 C 0.773438 5.109375 1.40625 3.582031 2.53125 2.457031 C 3.65625 1.332031 5.179688 0.699219 6.773438 0.699219 Z M 6.773438 0.699219 " clip-rule="nonzero"/></clipPath><clipPath id="fb1887fff4"><rect x="0" width="39" y="0" height="18"/></clipPath><clipPath id="94fb346015"><path d="M 23.5 17.570312 L 64.242188 17.570312 L 64.242188 21.144531 L 23.5 21.144531 Z M 23.5 17.570312 " clip-rule="nonzero"/></clipPath><clipPath id="fd12b6c218"><path d="M 25.285156 17.570312 L 62.453125 17.570312 C 63.4375 17.570312 64.238281 18.371094 64.238281 19.355469 C 64.238281 20.34375 63.4375 21.144531 62.453125 21.144531 L 25.285156 21.144531 C 24.300781 21.144531 23.5 20.34375 23.5 19.355469 C 23.5 18.371094 24.300781 17.570312 25.285156 17.570312 Z M 25.285156 17.570312 " clip-rule="nonzero"/></clipPath><clipPath id="5e3e7a8c95"><path d="M 0.5 0.570312 L 41.242188 0.570312 L 41.242188 4.144531 L 0.5 4.144531 Z M 0.5 0.570312 " clip-rule="nonzero"/></clipPath><clipPath id="6840620f0d"><path d="M 2.285156 0.570312 L 39.453125 0.570312 C 40.4375 0.570312 41.238281 1.371094 41.238281 2.355469 C 41.238281 3.34375 40.4375 4.144531 39.453125 4.144531 L 2.285156 4.144531 C 1.300781 4.144531 0.5 3.34375 0.5 2.355469 C 0.5 1.371094 1.300781 0.570312 2.285156 0.570312 Z M 2.285156 0.570312 " clip-rule="nonzero"/></clipPath><clipPath id="e8ca74fdfd"><rect x="0" width="42" y="0" height="5"/></clipPath><clipPath id="c99498f957"><path d="M 20.730469 41.910156 L 41.648438 41.910156 L 41.648438 45.480469 L 20.730469 45.480469 Z M 20.730469 41.910156 " clip-rule="nonzero"/></clipPath><clipPath id="7cbec88396"><path d="M 22.519531 41.910156 L 39.855469 41.910156 C 40.839844 41.910156 41.640625 42.707031 41.640625 43.695312 C 41.640625 44.679688 40.839844 45.480469 39.855469 45.480469 L 22.519531 45.480469 C 21.53125 45.480469 20.730469 44.679688 20.730469 43.695312 C 20.730469 42.707031 21.53125 41.910156 22.519531 41.910156 Z M 22.519531 41.910156 " clip-rule="nonzero"/></clipPath><clipPath id="4cdbd12e48"><path d="M 0.730469 0.910156 L 21.648438 0.910156 L 21.648438 4.480469 L 0.730469 4.480469 Z M 0.730469 0.910156 " clip-rule="nonzero"/></clipPath><clipPath id="802055053c"><path d="M 2.519531 0.910156 L 19.855469 0.910156 C 20.839844 0.910156 21.640625 1.707031 21.640625 2.695312 C 21.640625 3.679688 20.839844 4.480469 19.855469 4.480469 L 2.519531 4.480469 C 1.53125 4.480469 0.730469 3.679688 0.730469 2.695312 C 0.730469 1.707031 1.53125 0.910156 2.519531 0.910156 Z M 2.519531 0.910156 " clip-rule="nonzero"/></clipPath><clipPath id="ce7feab1b6"><rect x="0" width="22" y="0" height="5"/></clipPath><clipPath id="c7e17d6e1f"><path d="M 23.996094 48.957031 L 41.644531 48.957031 L 41.644531 52.527344 L 23.996094 52.527344 Z M 23.996094 48.957031 " clip-rule="nonzero"/></clipPath><clipPath id="9f945d640c"><path d="M 25.78125 48.957031 L 39.855469 48.957031 C 40.839844 48.957031 41.640625 49.757812 41.640625 50.742188 C 41.640625 51.730469 40.839844 52.527344 39.855469 52.527344 L 25.78125 52.527344 C 24.796875 52.527344 23.996094 51.730469 23.996094 50.742188 C 23.996094 49.757812 24.796875 48.957031 25.78125 48.957031 Z M 25.78125 48.957031 " clip-rule="nonzero"/></clipPath><clipPath id="18eceebc64"><path d="M 0.996094 0.957031 L 18.644531 0.957031 L 18.644531 4.527344 L 0.996094 4.527344 Z M 0.996094 0.957031 " clip-rule="nonzero"/></clipPath><clipPath id="93ab061a53"><path d="M 2.78125 0.957031 L 16.855469 0.957031 C 17.839844 0.957031 18.640625 1.757812 18.640625 2.742188 C 18.640625 3.730469 17.839844 4.527344 16.855469 4.527344 L 2.78125 4.527344 C 1.796875 4.527344 0.996094 3.730469 0.996094 2.742188 C 0.996094 1.757812 1.796875 0.957031 2.78125 0.957031 Z M 2.78125 0.957031 " clip-rule="nonzero"/></clipPath><clipPath id="085fc6e5b7"><rect x="0" width="19" y="0" height="5"/></clipPath><clipPath id="9ba08aedfe"><path d="M 46.546875 41.910156 L 67.183594 41.910156 L 67.183594 45.480469 L 46.546875 45.480469 Z M 46.546875 41.910156 " clip-rule="nonzero"/></clipPath><clipPath id="13a7c649e6"><path d="M 48.332031 41.910156 L 65.390625 41.910156 C 66.378906 41.910156 67.175781 42.707031 67.175781 43.695312 C 67.175781 44.679688 66.378906 45.480469 65.390625 45.480469 L 48.332031 45.480469 C 47.347656 45.480469 46.546875 44.679688 46.546875 43.695312 C 46.546875 42.707031 47.347656 41.910156 48.332031 41.910156 Z M 48.332031 41.910156 " clip-rule="nonzero"/></clipPath><clipPath id="a0822abd26"><path d="M 0.546875 0.910156 L 21.183594 0.910156 L 21.183594 4.480469 L 0.546875 4.480469 Z M 0.546875 0.910156 " clip-rule="nonzero"/></clipPath><clipPath id="d2e8067443"><path d="M 2.332031 0.910156 L 19.390625 0.910156 C 20.378906 0.910156 21.175781 1.707031 21.175781 2.695312 C 21.175781 3.679688 20.378906 4.480469 19.390625 4.480469 L 2.332031 4.480469 C 1.347656 4.480469 0.546875 3.679688 0.546875 2.695312 C 0.546875 1.707031 1.347656 0.910156 2.332031 0.910156 Z M 2.332031 0.910156 " clip-rule="nonzero"/></clipPath><clipPath id="56f953fe23"><rect x="0" width="22" y="0" height="5"/></clipPath><clipPath id="21e40d8e3a"><path d="M 44.25 48.957031 L 62.191406 48.957031 L 62.191406 52.527344 L 44.25 52.527344 Z M 44.25 48.957031 " clip-rule="nonzero"/></clipPath><clipPath id="6621497d0e"><path d="M 46.035156 48.957031 L 60.402344 48.957031 C 61.390625 48.957031 62.1875 49.757812 62.1875 50.742188 C 62.1875 51.730469 61.390625 52.527344 60.402344 52.527344 L 46.035156 52.527344 C 45.046875 52.527344 44.25 51.730469 44.25 50.742188 C 44.25 49.757812 45.046875 48.957031 46.035156 48.957031 Z M 46.035156 48.957031 " clip-rule="nonzero"/></clipPath><clipPath id="a81a7fd70e"><path d="M 0.25 0.957031 L 18.191406 0.957031 L 18.191406 4.527344 L 0.25 4.527344 Z M 0.25 0.957031 " clip-rule="nonzero"/></clipPath><clipPath id="4843bce9fe"><path d="M 2.035156 0.957031 L 16.402344 0.957031 C 17.390625 0.957031 18.1875 1.757812 18.1875 2.742188 C 18.1875 3.730469 17.390625 4.527344 16.402344 4.527344 L 2.035156 4.527344 C 1.046875 4.527344 0.25 3.730469 0.25 2.742188 C 0.25 1.757812 1.046875 0.957031 2.035156 0.957031 Z M 2.035156 0.957031 " clip-rule="nonzero"/></clipPath><clipPath id="9d4d745186"><rect x="0" width="19" y="0" height="5"/></clipPath><clipPath id="153bc51989"><rect x="0" width="233" y="0" height="59"/></clipPath></defs><g transform="matrix(1, 0, 0, 1, 79, 139)"><g clip-path="url(#153bc51989)"><g clip-path="url(#038bb7ff7e)"><g clip-path="url(#143c044655)"><g clip-path="url(#a0a1d6de27)"><g transform="matrix(1, 0, 0, 1, 76, 4)"><g clip-path="url(#e4f0a47d52)"><g clip-path="url(#45a69b5f8d)"><g clip-path="url(#432490669c)"><g clip-path="url(#2a8fe65717)"><path fill="#f89816" d="M 7.039062 -2.894531 L 12.046875 4.734375 L 5.382812 9.109375 L 0.375 1.480469 Z M 7.039062 -2.894531 " fill-opacity="1" fill-rule="nonzero"/></g></g></g></g></g></g></g></g><g clip-path="url(#49d5178782)"><g clip-path="url(#3023435e69)"><g clip-path="url(#9978fbf9d0)"><g transform="matrix(1, 0, 0, 1, 66, 5)"><g clip-path="url(#fd11f56a9e)"><g clip-path="url(#4e39c18967)"><g clip-path="url(#1674a7436a)"><g clip-path="url(#57ea314bf6)"><path fill="#f89816" d="M 12.359375 -1.667969 L 18.136719 7.289062 L 4.632812 16.003906 L -1.144531 7.046875 Z M 12.359375 -1.667969 " fill-opacity="1" fill-rule="nonzero"/></g></g></g></g></g></g></g></g><g clip-path="url(#6fb51ea3f6)"><g clip-path="url(#1ede9b745d)"><g clip-path="url(#0bc5528073)"><g transform="matrix(1, 0, 0, 1, 3, 46)"><g clip-path="url(#981fbefb27)"><g clip-path="url(#8e7b831bba)"><g clip-path="url(#5c7e391aa0)"><g clip-path="url(#5faeff2dd8)"><path fill="#f89816" d="M 0.714844 4.511719 L 11.132812 -2.394531 L 16.015625 4.972656 L 5.597656 11.878906 Z M 0.714844 4.511719 " fill-opacity="1" fill-rule="nonzero"/></g></g></g></g></g></g></g></g><g clip-path="url(#143f8a7d31)"><g clip-path="url(#02f94bbb35)"><g clip-path="url(#1292e0d2f0)"><g transform="matrix(1, 0, 0, 1, 1, 52)"><g clip-path="url(#9662c8bf7c)"><g clip-path="url(#013cbc21c6)"><g clip-path="url(#d20ee5fc75)"><g clip-path="url(#5a3b1edb14)"><path fill="#f89816" d="M 1.097656 0.132812 L 3.523438 0.996094 L 2.875 2.816406 L 0.449219 1.957031 Z M 1.097656 0.132812 " fill-opacity="1" fill-rule="nonzero"/></g></g></g></g></g></g></g></g><g clip-path="url(#e7087aa87c)"><g clip-path="url(#558dc296a3)"><g clip-path="url(#678ec2df6c)"><g transform="matrix(1, 0, 0, 1, 2, 55)"><g clip-path="url(#8b747f117a)"><g clip-path="url(#23087bef78)"><g clip-path="url(#a1c16edeb6)"><g clip-path="url(#33c1814cf5)"><path fill="#f89816" d="M 1.355469 -0.179688 L 4.121094 0.804688 L 3.382812 2.878906 L 0.617188 1.894531 Z M 1.355469 -0.179688 " fill-opacity="1" fill-rule="nonzero"/></g></g></g></g></g></g></g></g><g clip-path="url(#7c81db4286)"><g clip-path="url(#e9edfb96eb)"><g clip-path="url(#398937dfdf)"><g transform="matrix(1, 0, 0, 1, 4, 52)"><g clip-path="url(#4b3c13ffe6)"><g clip-path="url(#a8c253e720)"><g clip-path="url(#cc26f8eead)"><g clip-path="url(#bbf5d0727a)"><path fill="#f89816" d="M 1.238281 0.136719 L 4.5 1.296875 L 3.628906 3.746094 L 0.367188 2.585938 Z M 1.238281 0.136719 " fill-opacity="1" fill-rule="nonzero"/></g></g></g></g></g></g></g></g><g clip-path="url(#e388396670)"><g clip-path="url(#55f9828b03)"><g clip-path="url(#0b8bd00544)"><g transform="matrix(1, 0, 0, 1, 0, 54)"><g clip-path="url(#6e7f9100e8)"><g clip-path="url(#838752f81c)"><g clip-path="url(#2fd11bf13c)"><g clip-path="url(#e2c697972b)"><path fill="#f89816" d="M 1.179688 0.757812 L 2.613281 1.265625 L 2.230469 2.34375 L 0.796875 1.835938 Z M 1.179688 0.757812 " fill-opacity="1" fill-rule="nonzero"/></g></g></g></g></g></g></g></g><g clip-path="url(#3035612167)"><g clip-path="url(#efd4e86fb5)"><g transform="matrix(1, 0, 0, 1, 11, 9)"><g clip-path="url(#701eadcfb7)"><g clip-path="url(#fd48f44699)"><g clip-path="url(#43e971ff68)"><path fill="#622ad1" d="M 0.363281 0.386719 L 65.410156 0.386719 L 65.410156 43.527344 L 0.363281 43.527344 Z M 0.363281 0.386719 " fill-opacity="1" fill-rule="nonzero"/></g></g></g></g></g></g><g clip-path="url(#f440e2c731)"><g clip-path="url(#1aeb51ccbf)"><g transform="matrix(1, 0, 0, 1, 17, 36)"><g clip-path="url(#e3f2693542)"><g clip-path="url(#e3b8a093dc)"><g clip-path="url(#6b05dc252a)"><path fill="#f89816" d="M 0.820312 0.726562 L 52.882812 0.726562 L 52.882812 21.949219 L 0.820312 21.949219 Z M 0.820312 0.726562 " fill-opacity="1" fill-rule="nonzero"/></g></g></g></g></g></g><g clip-path="url(#2d091c3758)"><g clip-path="url(#8ecf9a30ed)"><g transform="matrix(1, 0, 0, 1, 24, 2)"><g clip-path="url(#fb1887fff4)"><g clip-path="url(#3aa42d299f)"><g clip-path="url(#505024b5e7)"><path fill="#844cf0" d="M 0.773438 0.699219 L 38.964844 0.699219 L 38.964844 17.355469 L 0.773438 17.355469 Z M 0.773438 0.699219 " fill-opacity="1" fill-rule="nonzero"/></g></g></g></g></g></g><g clip-path="url(#94fb346015)"><g clip-path="url(#fd12b6c218)"><g transform="matrix(1, 0, 0, 1, 23, 17)"><g clip-path="url(#e8ca74fdfd)"><g clip-path="url(#5e3e7a8c95)"><g clip-path="url(#6840620f0d)"><path fill="#844cf0" d="M 0.5 0.570312 L 41.242188 0.570312 L 41.242188 4.144531 L 0.5 4.144531 Z M 0.5 0.570312 " fill-opacity="1" fill-rule="nonzero"/></g></g></g></g></g></g><g clip-path="url(#c99498f957)"><g clip-path="url(#7cbec88396)"><g transform="matrix(1, 0, 0, 1, 20, 41)"><g clip-path="url(#ce7feab1b6)"><g clip-path="url(#4cdbd12e48)"><g clip-path="url(#802055053c)"><path fill="#ffffff" d="M 0.730469 0.910156 L 21.648438 0.910156 L 21.648438 4.480469 L 0.730469 4.480469 Z M 0.730469 0.910156 " fill-opacity="1" fill-rule="nonzero"/></g></g></g></g></g></g><g clip-path="url(#c7e17d6e1f)"><g clip-path="url(#9f945d640c)"><g transform="matrix(1, 0, 0, 1, 23, 48)"><g clip-path="url(#085fc6e5b7)"><g clip-path="url(#18eceebc64)"><g clip-path="url(#93ab061a53)"><path fill="#ffffff" d="M 0.996094 0.957031 L 18.644531 0.957031 L 18.644531 4.527344 L 0.996094 4.527344 Z M 0.996094 0.957031 " fill-opacity="1" fill-rule="nonzero"/></g></g></g></g></g></g><g clip-path="url(#9ba08aedfe)"><g clip-path="url(#13a7c649e6)"><g transform="matrix(1, 0, 0, 1, 46, 41)"><g clip-path="url(#56f953fe23)"><g clip-path="url(#a0822abd26)"><g clip-path="url(#d2e8067443)"><path fill="#ffffff" d="M 0.546875 0.910156 L 21.183594 0.910156 L 21.183594 4.480469 L 0.546875 4.480469 Z M 0.546875 0.910156 " fill-opacity="1" fill-rule="nonzero"/></g></g></g></g></g></g><g clip-path="url(#21e40d8e3a)"><g clip-path="url(#6621497d0e)"><g transform="matrix(1, 0, 0, 1, 44, 48)"><g clip-path="url(#9d4d745186)"><g clip-path="url(#a81a7fd70e)"><g clip-path="url(#4843bce9fe)"><path fill="#ffffff" d="M 0.25 0.957031 L 18.191406 0.957031 L 18.191406 4.527344 L 0.25 4.527344 Z M 0.25 0.957031 " fill-opacity="1" fill-rule="nonzero"/></g></g></g></g></g></g><g fill="#f89816" fill-opacity="1"><g transform="translate(81.315525, 44.604864)"><g><path d="M 1.5 -20.640625 L 9.03125 -20.640625 C 11.132812 -20.640625 12.832031 -20.097656 14.125 -19.015625 C 15.425781 -17.929688 16.078125 -16.351562 16.078125 -14.28125 C 16.078125 -12.21875 15.414062 -10.597656 14.09375 -9.421875 C 12.78125 -8.242188 11.09375 -7.65625 9.03125 -7.65625 L 6.203125 -7.65625 L 6.203125 0 L 1.5 0 Z M 6.203125 -11.40625 L 7.53125 -11.40625 C 8.582031 -11.40625 9.441406 -11.617188 10.109375 -12.046875 C 10.785156 -12.472656 11.125 -13.171875 11.125 -14.140625 C 11.125 -15.117188 10.785156 -15.820312 10.109375 -16.25 C 9.441406 -16.675781 8.582031 -16.890625 7.53125 -16.890625 L 6.203125 -16.890625 Z M 6.203125 -11.40625 "/></g></g></g><g fill="#f89816" fill-opacity="1"><g transform="translate(97.348156, 44.604864)"><g><path d="M 1.5 0 L 1.5 -12.828125 L 5.921875 -12.828125 L 5.921875 -10.984375 L 5.984375 -10.984375 C 6.015625 -11.046875 6.066406 -11.125 6.140625 -11.21875 C 6.210938 -11.320312 6.375 -11.5 6.625 -11.75 C 6.875 -12 7.140625 -12.222656 7.421875 -12.421875 C 7.710938 -12.628906 8.082031 -12.8125 8.53125 -12.96875 C 8.976562 -13.125 9.4375 -13.203125 9.90625 -13.203125 C 10.382812 -13.203125 10.859375 -13.132812 11.328125 -13 C 11.796875 -12.875 12.140625 -12.742188 12.359375 -12.609375 L 12.703125 -12.40625 L 10.859375 -8.65625 C 10.304688 -9.125 9.539062 -9.359375 8.5625 -9.359375 C 8.019531 -9.359375 7.554688 -9.238281 7.171875 -9 C 6.796875 -8.769531 6.523438 -8.488281 6.359375 -8.15625 C 6.203125 -7.820312 6.085938 -7.535156 6.015625 -7.296875 C 5.953125 -7.066406 5.921875 -6.882812 5.921875 -6.75 L 5.921875 0 Z M 1.5 0 "/></g></g></g><g fill="#f89816" fill-opacity="1"><g transform="translate(109.804232, 44.604864)"><g><path d="M 1.921875 -19.984375 C 2.441406 -20.503906 3.0625 -20.765625 3.78125 -20.765625 C 4.5 -20.765625 5.113281 -20.503906 5.625 -19.984375 C 6.144531 -19.472656 6.40625 -18.859375 6.40625 -18.140625 C 6.40625 -17.421875 6.144531 -16.800781 5.625 -16.28125 C 5.113281 -15.769531 4.5 -15.515625 3.78125 -15.515625 C 3.0625 -15.515625 2.441406 -15.769531 1.921875 -16.28125 C 1.410156 -16.800781 1.15625 -17.421875 1.15625 -18.140625 C 1.15625 -18.859375 1.410156 -19.472656 1.921875 -19.984375 Z M 1.5 -12.828125 L 1.5 0 L 5.921875 0 L 5.921875 -12.828125 Z M 1.5 -12.828125 "/></g></g></g><g fill="#f89816" fill-opacity="1"><g transform="translate(117.357904, 44.604864)"><g><path d="M 1.5 0 L 1.5 -12.828125 L 5.921875 -12.828125 L 5.921875 -11.484375 L 5.984375 -11.484375 C 7.128906 -12.628906 8.351562 -13.203125 9.65625 -13.203125 C 10.289062 -13.203125 10.921875 -13.117188 11.546875 -12.953125 C 12.171875 -12.785156 12.769531 -12.523438 13.34375 -12.171875 C 13.914062 -11.828125 14.378906 -11.332031 14.734375 -10.6875 C 15.097656 -10.050781 15.28125 -9.304688 15.28125 -8.453125 L 15.28125 0 L 10.859375 0 L 10.859375 -7.25 C 10.859375 -7.914062 10.644531 -8.5 10.21875 -9 C 9.789062 -9.5 9.238281 -9.75 8.5625 -9.75 C 7.894531 -9.75 7.285156 -9.488281 6.734375 -8.96875 C 6.191406 -8.457031 5.921875 -7.882812 5.921875 -7.25 L 5.921875 0 Z M 1.5 0 "/></g></g></g><g fill="#f89816" fill-opacity="1"><g transform="translate(133.740853, 44.604864)"><g><path d="M 2.25 -12.828125 L 2.25 -17.609375 L 6.671875 -17.609375 L 6.671875 -12.828125 L 9.375 -12.828125 L 9.375 -9.453125 L 6.671875 -9.453125 L 6.671875 -5.375 C 6.671875 -4.195312 7.007812 -3.609375 7.6875 -3.609375 C 7.851562 -3.609375 8.023438 -3.640625 8.203125 -3.703125 C 8.390625 -3.765625 8.53125 -3.832031 8.625 -3.90625 L 8.78125 -4 L 9.875 -0.421875 C 8.925781 0.109375 7.84375 0.375 6.625 0.375 C 5.789062 0.375 5.070312 0.226562 4.46875 -0.0625 C 3.875 -0.351562 3.421875 -0.742188 3.109375 -1.234375 C 2.804688 -1.722656 2.585938 -2.238281 2.453125 -2.78125 C 2.316406 -3.332031 2.25 -3.914062 2.25 -4.53125 L 2.25 -9.453125 L 0.40625 -9.453125 L 0.40625 -12.828125 Z M 2.25 -12.828125 "/></g></g></g><g fill="#622ad1" fill-opacity="1"><g transform="translate(144.925263, 44.604864)"><g><path d="M 1.5 -20.640625 L 8.875 -20.640625 C 10.863281 -20.640625 12.484375 -20.109375 13.734375 -19.046875 C 14.984375 -17.984375 15.609375 -16.472656 15.609375 -14.515625 C 15.609375 -12.992188 15.226562 -11.71875 14.46875 -10.6875 C 13.707031 -9.664062 12.675781 -8.945312 11.375 -8.53125 L 18.484375 0 L 12.5 0 L 6.203125 -8.15625 L 6.203125 0 L 1.5 0 Z M 6.203125 -11.484375 L 6.75 -11.484375 C 7.1875 -11.484375 7.554688 -11.488281 7.859375 -11.5 C 8.160156 -11.519531 8.5 -11.578125 8.875 -11.671875 C 9.257812 -11.773438 9.566406 -11.914062 9.796875 -12.09375 C 10.035156 -12.28125 10.238281 -12.550781 10.40625 -12.90625 C 10.570312 -13.257812 10.65625 -13.6875 10.65625 -14.1875 C 10.65625 -14.6875 10.570312 -15.109375 10.40625 -15.453125 C 10.238281 -15.804688 10.035156 -16.070312 9.796875 -16.25 C 9.566406 -16.4375 9.257812 -16.578125 8.875 -16.671875 C 8.5 -16.773438 8.160156 -16.835938 7.859375 -16.859375 C 7.554688 -16.878906 7.1875 -16.890625 6.75 -16.890625 L 6.203125 -16.890625 Z M 6.203125 -11.484375 "/></g></g></g><g fill="#622ad1" fill-opacity="1"><g transform="translate(162.233535, 44.604864)"><g><path d="M 2.71875 -1.515625 C 1.289062 -2.785156 0.578125 -4.410156 0.578125 -6.390625 C 0.578125 -8.378906 1.316406 -10.007812 2.796875 -11.28125 C 4.285156 -12.5625 6.125 -13.203125 8.3125 -13.203125 C 10.457031 -13.203125 12.265625 -12.5625 13.734375 -11.28125 C 15.210938 -10 15.953125 -8.375 15.953125 -6.40625 C 15.953125 -4.4375 15.226562 -2.8125 13.78125 -1.53125 C 12.34375 -0.257812 10.519531 0.375 8.3125 0.375 C 6.007812 0.375 4.144531 -0.253906 2.71875 -1.515625 Z M 6.140625 -8.578125 C 5.566406 -8.015625 5.28125 -7.289062 5.28125 -6.40625 C 5.28125 -5.519531 5.550781 -4.796875 6.09375 -4.234375 C 6.644531 -3.679688 7.375 -3.40625 8.28125 -3.40625 C 9.144531 -3.40625 9.851562 -3.6875 10.40625 -4.25 C 10.96875 -4.820312 11.25 -5.539062 11.25 -6.40625 C 11.25 -7.289062 10.960938 -8.015625 10.390625 -8.578125 C 9.816406 -9.148438 9.113281 -9.4375 8.28125 -9.4375 C 7.425781 -9.4375 6.710938 -9.148438 6.140625 -8.578125 Z M 6.140625 -8.578125 "/></g></g></g><g fill="#622ad1" fill-opacity="1"><g transform="translate(178.766598, 44.604864)"><g><path d="M 8.328125 -9.578125 C 7.492188 -9.578125 6.773438 -9.269531 6.171875 -8.65625 C 5.578125 -8.039062 5.28125 -7.296875 5.28125 -6.421875 C 5.28125 -5.546875 5.578125 -4.796875 6.171875 -4.171875 C 6.773438 -3.554688 7.492188 -3.25 8.328125 -3.25 C 8.734375 -3.25 9.113281 -3.296875 9.46875 -3.390625 C 9.820312 -3.492188 10.082031 -3.597656 10.25 -3.703125 L 10.484375 -3.859375 L 11.984375 -0.78125 C 11.867188 -0.695312 11.707031 -0.59375 11.5 -0.46875 C 11.289062 -0.34375 10.8125 -0.171875 10.0625 0.046875 C 9.320312 0.265625 8.53125 0.375 7.6875 0.375 C 5.800781 0.375 4.144531 -0.285156 2.71875 -1.609375 C 1.289062 -2.941406 0.578125 -4.53125 0.578125 -6.375 C 0.578125 -8.25 1.289062 -9.851562 2.71875 -11.1875 C 4.144531 -12.53125 5.800781 -13.203125 7.6875 -13.203125 C 8.53125 -13.203125 9.3125 -13.101562 10.03125 -12.90625 C 10.75 -12.707031 11.257812 -12.507812 11.5625 -12.3125 L 11.984375 -12 L 10.484375 -8.984375 C 9.929688 -9.378906 9.210938 -9.578125 8.328125 -9.578125 Z M 8.328125 -9.578125 "/></g></g></g><g fill="#622ad1" fill-opacity="1"><g transform="translate(191.047573, 44.604864)"><g><path d="M 16.15625 -12.828125 L 10.0625 -6.703125 L 16.765625 0 L 11.0625 0 L 5.921875 -5.125 L 5.921875 0 L 1.5 0 L 1.5 -21.515625 L 5.921875 -21.515625 L 5.921875 -8.359375 L 10.40625 -12.828125 Z M 16.15625 -12.828125 "/></g></g></g><g fill="#622ad1" fill-opacity="1"><g transform="translate(206.579965, 44.604864)"><g><path d="M 14.484375 -5.796875 L 5.171875 -5.796875 C 5.171875 -4.898438 5.460938 -4.234375 6.046875 -3.796875 C 6.628906 -3.367188 7.265625 -3.15625 7.953125 -3.15625 C 8.671875 -3.15625 9.238281 -3.25 9.65625 -3.4375 C 10.070312 -3.632812 10.546875 -4.015625 11.078125 -4.578125 L 14.28125 -2.984375 C 12.945312 -0.742188 10.726562 0.375 7.625 0.375 C 5.695312 0.375 4.039062 -0.285156 2.65625 -1.609375 C 1.269531 -2.941406 0.578125 -4.539062 0.578125 -6.40625 C 0.578125 -8.269531 1.269531 -9.867188 2.65625 -11.203125 C 4.039062 -12.535156 5.695312 -13.203125 7.625 -13.203125 C 9.664062 -13.203125 11.320312 -12.613281 12.59375 -11.4375 C 13.875 -10.269531 14.515625 -8.59375 14.515625 -6.40625 C 14.515625 -6.101562 14.503906 -5.898438 14.484375 -5.796875 Z M 5.296875 -8.25 L 10.1875 -8.25 C 10.082031 -8.914062 9.816406 -9.425781 9.390625 -9.78125 C 8.960938 -10.144531 8.414062 -10.328125 7.75 -10.328125 C 7.019531 -10.328125 6.4375 -10.132812 6 -9.75 C 5.570312 -9.375 5.335938 -8.875 5.296875 -8.25 Z M 5.296875 -8.25 "/></g></g></g><g fill="#622ad1" fill-opacity="1"><g transform="translate(221.537216, 44.604864)"><g><path d="M 2.25 -12.828125 L 2.25 -17.609375 L 6.671875 -17.609375 L 6.671875 -12.828125 L 9.375 -12.828125 L 9.375 -9.453125 L 6.671875 -9.453125 L 6.671875 -5.375 C 6.671875 -4.195312 7.007812 -3.609375 7.6875 -3.609375 C 7.851562 -3.609375 8.023438 -3.640625 8.203125 -3.703125 C 8.390625 -3.765625 8.53125 -3.832031 8.625 -3.90625 L 8.78125 -4 L 9.875 -0.421875 C 8.925781 0.109375 7.84375 0.375 6.625 0.375 C 5.789062 0.375 5.070312 0.226562 4.46875 -0.0625 C 3.875 -0.351562 3.421875 -0.742188 3.109375 -1.234375 C 2.804688 -1.722656 2.585938 -2.238281 2.453125 -2.78125 C 2.316406 -3.332031 2.25 -3.914062 2.25 -4.53125 L 2.25 -9.453125 L 0.40625 -9.453125 L 0.40625 -12.828125 Z M 2.25 -12.828125 "/></g></g></g></g></g></svg>