<svg version="1.0" preserveAspectRatio="xMidYMid meet" viewBox="3.4499925 133.040246807034 372 116.24999721" zoomAndPan="magnify" xmlns:xlink="http://www.w3.org/1999/xlink" xmlns="http://www.w3.org/2000/svg" style="max-height: 500px" width="372" height="116.24999721"><defs><g/><clipPath id="ae4f1c7c8c"><path clip-rule="nonzero" d="M 111 6 L 126 6 L 126 19 L 111 19 Z M 111 6"/></clipPath><clipPath id="9aef833c06"><path clip-rule="nonzero" d="M 121.710938 0.59375 L 129.09375 11.84375 L 119.265625 18.292969 L 111.886719 7.042969 Z M 121.710938 0.59375"/></clipPath><clipPath id="29581a335e"><path clip-rule="nonzero" d="M 125.398438 6.210938 L 119.257812 18.277344 L 111.886719 7.042969 Z M 125.398438 6.210938"/></clipPath><clipPath id="0b3ec0cd0d"><path clip-rule="nonzero" d="M 0.878906 0.199219 L 14.558594 0.199219 L 14.558594 12.441406 L 0.878906 12.441406 Z M 0.878906 0.199219"/></clipPath><clipPath id="bdd5a12489"><path clip-rule="nonzero" d="M 10.710938 -5.40625 L 18.09375 5.84375 L 8.265625 12.292969 L 0.886719 1.042969 Z M 10.710938 -5.40625"/></clipPath><clipPath id="fb4b035083"><path clip-rule="nonzero" d="M 14.398438 0.210938 L 8.257812 12.277344 L 0.886719 1.042969 Z M 14.398438 0.210938"/></clipPath><clipPath id="b72c9f4fb1"><rect height="13" y="0" width="15" x="0"/></clipPath><clipPath id="bee3a20e59"><path clip-rule="nonzero" d="M 97 6 L 121 6 L 121 27 L 97 27 Z M 97 6"/></clipPath><clipPath id="7886ac7f75"><path clip-rule="nonzero" d="M 114.800781 3.875 L 123.324219 17.078125 L 103.363281 29.960938 L 94.839844 16.757812 Z M 114.800781 3.875"/></clipPath><clipPath id="068e22d354"><path clip-rule="nonzero" d="M 119.0625 10.476562 C 121.417969 14.125 120.367188 18.988281 116.722656 21.339844 L 110 25.679688 C 106.351562 28.03125 101.488281 26.984375 99.136719 23.335938 C 96.78125 19.691406 97.832031 14.828125 101.476562 12.472656 L 108.199219 8.136719 C 111.847656 5.78125 116.710938 6.832031 119.0625 10.476562 Z M 119.0625 10.476562"/></clipPath><clipPath id="5c2012706d"><path clip-rule="nonzero" d="M 0 0 L 24 0 L 24 21 L 0 21 Z M 0 0"/></clipPath><clipPath id="2889ac8b10"><path clip-rule="nonzero" d="M 17.800781 -2.125 L 26.324219 11.078125 L 6.363281 23.960938 L -2.160156 10.757812 Z M 17.800781 -2.125"/></clipPath><clipPath id="2fa4c1f2eb"><path clip-rule="nonzero" d="M 22.0625 4.476562 C 24.417969 8.125 23.367188 12.988281 19.722656 15.339844 L 13 19.679688 C 9.351562 22.03125 4.488281 20.984375 2.136719 17.335938 C -0.21875 13.691406 0.832031 8.828125 4.476562 6.472656 L 11.199219 2.136719 C 14.847656 -0.21875 19.710938 0.832031 22.0625 4.476562 Z M 22.0625 4.476562"/></clipPath><clipPath id="5ecf47cb50"><rect height="21" y="0" width="24" x="0"/></clipPath><clipPath id="cb2b5806ff"><path clip-rule="nonzero" d="M 4 66 L 24 66 L 24 84.441406 L 4 84.441406 Z M 4 66"/></clipPath><clipPath id="5ec4b854f8"><path clip-rule="nonzero" d="M 4.738281 73.4375 L 20.140625 63.226562 L 27.34375 74.089844 L 11.9375 84.300781 Z M 4.738281 73.4375"/></clipPath><clipPath id="9f35fa17fa"><path clip-rule="nonzero" d="M 4.738281 73.4375 L 14.667969 66.855469 L 23.703125 68.683594 L 21.871094 77.71875 L 11.9375 84.300781 L 13.769531 75.269531 Z M 4.738281 73.4375"/></clipPath><clipPath id="15250b6bfb"><path clip-rule="nonzero" d="M 0.601562 0.679688 L 19.800781 0.679688 L 19.800781 18.441406 L 0.601562 18.441406 Z M 0.601562 0.679688"/></clipPath><clipPath id="debefde408"><path clip-rule="nonzero" d="M 0.738281 7.4375 L 16.140625 -2.773438 L 23.34375 8.089844 L 7.9375 18.300781 Z M 0.738281 7.4375"/></clipPath><clipPath id="ebc2e68edd"><path clip-rule="nonzero" d="M 0.738281 7.4375 L 10.667969 0.855469 L 19.703125 2.683594 L 17.871094 11.71875 L 7.9375 18.300781 L 9.769531 9.269531 Z M 0.738281 7.4375"/></clipPath><clipPath id="1379e35d8f"><rect height="19" y="0" width="20" x="0"/></clipPath><clipPath id="177c0239b2"><path clip-rule="nonzero" d="M 1 76 L 6 76 L 6 80 L 1 80 Z M 1 76"/></clipPath><clipPath id="477710f614"><path clip-rule="nonzero" d="M 2.359375 75.832031 L 5.945312 77.109375 L 4.988281 79.792969 L 1.402344 78.519531 Z M 2.359375 75.832031"/></clipPath><clipPath id="9ca35da66d"><path clip-rule="nonzero" d="M 3.253906 76.152344 L 5.9375 77.105469 L 4.085938 79.472656 L 1.402344 78.519531 Z M 3.253906 76.152344"/></clipPath><clipPath id="f75e85f35e"><path clip-rule="nonzero" d="M 0.238281 0.0390625 L 5 0.0390625 L 5 3.640625 L 0.238281 3.640625 Z M 0.238281 0.0390625"/></clipPath><clipPath id="cdd38ac90d"><path clip-rule="nonzero" d="M 1.359375 -0.167969 L 4.945312 1.109375 L 3.988281 3.792969 L 0.402344 2.519531 Z M 1.359375 -0.167969"/></clipPath><clipPath id="3d22356cc8"><path clip-rule="nonzero" d="M 2.253906 0.152344 L 4.9375 1.105469 L 3.085938 3.472656 L 0.402344 2.519531 Z M 2.253906 0.152344"/></clipPath><clipPath id="5edac103f7"><rect height="4" y="0" width="5" x="0"/></clipPath><clipPath id="b0656ac8c3"><path clip-rule="nonzero" d="M 3 80 L 9 80 L 9 84 L 3 84 Z M 3 80"/></clipPath><clipPath id="3f4856910a"><path clip-rule="nonzero" d="M 4.210938 79.792969 L 8.300781 81.246094 L 7.210938 84.308594 L 3.121094 82.851562 Z M 4.210938 79.792969"/></clipPath><clipPath id="a763353f3e"><path clip-rule="nonzero" d="M 5.230469 80.15625 L 8.292969 81.242188 L 6.183594 83.941406 L 3.121094 82.851562 Z M 5.230469 80.15625"/></clipPath><clipPath id="83e57623b4"><path clip-rule="nonzero" d="M 0 0.121094 L 5.441406 0.121094 L 5.441406 3.960938 L 0 3.960938 Z M 0 0.121094"/></clipPath><clipPath id="1adaa50bbd"><path clip-rule="nonzero" d="M 1.210938 -0.207031 L 5.300781 1.246094 L 4.210938 4.308594 L 0.121094 2.851562 Z M 1.210938 -0.207031"/></clipPath><clipPath id="77ee541f15"><path clip-rule="nonzero" d="M 2.230469 0.15625 L 5.292969 1.242188 L 3.183594 3.941406 L 0.121094 2.851562 Z M 2.230469 0.15625"/></clipPath><clipPath id="0e3acc1526"><rect height="4" y="0" width="6" x="0"/></clipPath><clipPath id="d1697c4f5f"><path clip-rule="nonzero" d="M 5 76 L 12 76 L 12 81 L 5 81 Z M 5 76"/></clipPath><clipPath id="81b91ab225"><path clip-rule="nonzero" d="M 6.988281 75.832031 L 11.8125 77.550781 L 10.527344 81.160156 L 5.703125 79.445312 Z M 6.988281 75.832031"/></clipPath><clipPath id="06069ce2de"><path clip-rule="nonzero" d="M 8.191406 76.261719 L 11.804688 77.546875 L 9.316406 80.726562 L 5.703125 79.445312 Z M 8.191406 76.261719"/></clipPath><clipPath id="df57fc7313"><path clip-rule="nonzero" d="M 0.558594 0.0390625 L 7 0.0390625 L 7 4.839844 L 0.558594 4.839844 Z M 0.558594 0.0390625"/></clipPath><clipPath id="60e52db6d5"><path clip-rule="nonzero" d="M 1.988281 -0.167969 L 6.8125 1.550781 L 5.527344 5.160156 L 0.703125 3.445312 Z M 1.988281 -0.167969"/></clipPath><clipPath id="0278ffcd84"><path clip-rule="nonzero" d="M 3.191406 0.261719 L 6.804688 1.546875 L 4.316406 4.726562 L 0.703125 3.445312 Z M 3.191406 0.261719"/></clipPath><clipPath id="3dfc4d9610"><rect height="5" y="0" width="7" x="0"/></clipPath><clipPath id="d4e8169e40"><path clip-rule="nonzero" d="M 0.28125 79 L 4 79 L 4 82 L 0.28125 82 Z M 0.28125 79"/></clipPath><clipPath id="d7b764b857"><path clip-rule="nonzero" d="M 1.003906 79.695312 L 3.125 80.449219 L 2.558594 82.039062 L 0.4375 81.285156 Z M 1.003906 79.695312"/></clipPath><clipPath id="df35ee0500"><path clip-rule="nonzero" d="M 1.53125 79.882812 L 3.121094 80.449219 L 2.027344 81.847656 L 0.4375 81.285156 Z M 1.53125 79.882812"/></clipPath><clipPath id="ccf9384eb9"><path clip-rule="nonzero" d="M 0.28125 0.878906 L 3.160156 0.878906 L 3.160156 3 L 0.28125 3 Z M 0.28125 0.878906"/></clipPath><clipPath id="c4f9171ea7"><path clip-rule="nonzero" d="M 1.003906 0.695312 L 3.125 1.449219 L 2.558594 3.039062 L 0.4375 2.285156 Z M 1.003906 0.695312"/></clipPath><clipPath id="2c06f6bff1"><path clip-rule="nonzero" d="M 1.53125 0.882812 L 3.121094 1.449219 L 2.027344 2.847656 L 0.4375 2.285156 Z M 1.53125 0.882812"/></clipPath><clipPath id="db9381e447"><rect height="3" y="0" width="4" x="0"/></clipPath><clipPath id="ececc5c8c0"><path clip-rule="nonzero" d="M 16.019531 12.800781 L 111.933594 12.800781 L 111.933594 76.414062 L 16.019531 76.414062 Z M 16.019531 12.800781"/></clipPath><clipPath id="b0350d9645"><path clip-rule="nonzero" d="M 23.519531 12.800781 L 104.378906 12.800781 C 106.371094 12.800781 108.277344 13.589844 109.683594 15 C 111.089844 16.40625 111.878906 18.3125 111.878906 20.300781 L 111.878906 68.914062 C 111.878906 70.902344 111.089844 72.808594 109.683594 74.214844 C 108.277344 75.625 106.371094 76.414062 104.378906 76.414062 L 23.519531 76.414062 C 21.53125 76.414062 19.621094 75.625 18.214844 74.214844 C 16.808594 72.808594 16.019531 70.902344 16.019531 68.914062 L 16.019531 20.300781 C 16.019531 18.3125 16.808594 16.40625 18.214844 15 C 19.621094 13.589844 21.53125 12.800781 23.519531 12.800781 Z M 23.519531 12.800781"/></clipPath><clipPath id="e5e4fbda1c"><path clip-rule="nonzero" d="M 0.0195312 0.800781 L 95.933594 0.800781 L 95.933594 64.414062 L 0.0195312 64.414062 Z M 0.0195312 0.800781"/></clipPath><clipPath id="6f9493b83e"><path clip-rule="nonzero" d="M 7.519531 0.800781 L 88.378906 0.800781 C 90.371094 0.800781 92.277344 1.589844 93.683594 3 C 95.089844 4.40625 95.878906 6.3125 95.878906 8.300781 L 95.878906 56.914062 C 95.878906 58.902344 95.089844 60.808594 93.683594 62.214844 C 92.277344 63.625 90.371094 64.414062 88.378906 64.414062 L 7.519531 64.414062 C 5.53125 64.414062 3.621094 63.625 2.214844 62.214844 C 0.808594 60.808594 0.0195312 58.902344 0.0195312 56.914062 L 0.0195312 8.300781 C 0.0195312 6.3125 0.808594 4.40625 2.214844 3 C 3.621094 1.589844 5.53125 0.800781 7.519531 0.800781 Z M 7.519531 0.800781"/></clipPath><clipPath id="c3b4d05fa9"><rect height="65" y="0" width="96" x="0"/></clipPath><clipPath id="a502bd5b24"><path clip-rule="nonzero" d="M 25.539062 53.113281 L 102.429688 53.113281 L 102.429688 84.40625 L 25.539062 84.40625 Z M 25.539062 53.113281"/></clipPath><clipPath id="6e5f012ef3"><path clip-rule="nonzero" d="M 31.539062 53.113281 L 96.359375 53.113281 C 99.675781 53.113281 102.359375 55.800781 102.359375 59.113281 L 102.359375 78.40625 C 102.359375 81.71875 99.675781 84.40625 96.359375 84.40625 L 31.539062 84.40625 C 28.226562 84.40625 25.539062 81.71875 25.539062 78.40625 L 25.539062 59.113281 C 25.539062 55.800781 28.226562 53.113281 31.539062 53.113281 Z M 31.539062 53.113281"/></clipPath><clipPath id="a1dfb4c443"><path clip-rule="nonzero" d="M 0.539062 0.113281 L 77.429688 0.113281 L 77.429688 31.40625 L 0.539062 31.40625 Z M 0.539062 0.113281"/></clipPath><clipPath id="1665d0d209"><path clip-rule="nonzero" d="M 6.539062 0.113281 L 71.359375 0.113281 C 74.675781 0.113281 77.359375 2.800781 77.359375 6.113281 L 77.359375 25.40625 C 77.359375 28.71875 74.675781 31.40625 71.359375 31.40625 L 6.539062 31.40625 C 3.226562 31.40625 0.539062 28.71875 0.539062 25.40625 L 0.539062 6.113281 C 0.539062 2.800781 3.226562 0.113281 6.539062 0.113281 Z M 6.539062 0.113281"/></clipPath><clipPath id="765cb08630"><rect height="32" y="0" width="78" x="0"/></clipPath><clipPath id="7c7a54e8cb"><path clip-rule="nonzero" d="M 35.792969 2.9375 L 92.109375 2.9375 L 92.109375 27.5 L 35.792969 27.5 Z M 35.792969 2.9375"/></clipPath><clipPath id="862d922f3e"><path clip-rule="nonzero" d="M 41.792969 2.9375 L 86.109375 2.9375 C 89.421875 2.9375 92.109375 5.625 92.109375 8.9375 L 92.109375 21.5 C 92.109375 24.8125 89.421875 27.5 86.109375 27.5 L 41.792969 27.5 C 38.476562 27.5 35.792969 24.8125 35.792969 21.5 L 35.792969 8.9375 C 35.792969 5.625 38.476562 2.9375 41.792969 2.9375 Z M 41.792969 2.9375"/></clipPath><clipPath id="4767da6fe4"><path clip-rule="nonzero" d="M 0.792969 0.9375 L 57.109375 0.9375 L 57.109375 25.5 L 0.792969 25.5 Z M 0.792969 0.9375"/></clipPath><clipPath id="7aeb82b287"><path clip-rule="nonzero" d="M 6.792969 0.9375 L 51.109375 0.9375 C 54.421875 0.9375 57.109375 3.625 57.109375 6.9375 L 57.109375 19.5 C 57.109375 22.8125 54.421875 25.5 51.109375 25.5 L 6.792969 25.5 C 3.476562 25.5 0.792969 22.8125 0.792969 19.5 L 0.792969 6.9375 C 0.792969 3.625 3.476562 0.9375 6.792969 0.9375 Z M 6.792969 0.9375"/></clipPath><clipPath id="9f3d5338ea"><rect height="26" y="0" width="58" x="0"/></clipPath><clipPath id="a7208f7354"><path clip-rule="nonzero" d="M 33.914062 24.867188 L 93.988281 24.867188 L 93.988281 30.132812 L 33.914062 30.132812 Z M 33.914062 24.867188"/></clipPath><clipPath id="c4822533af"><path clip-rule="nonzero" d="M 36.164062 24.867188 L 91.734375 24.867188 C 92.976562 24.867188 93.984375 25.875 93.984375 27.117188 L 93.984375 27.882812 C 93.984375 29.125 92.976562 30.132812 91.734375 30.132812 L 36.164062 30.132812 C 34.921875 30.132812 33.914062 29.125 33.914062 27.882812 L 33.914062 27.117188 C 33.914062 25.875 34.921875 24.867188 36.164062 24.867188 Z M 36.164062 24.867188"/></clipPath><clipPath id="6b86d101df"><path clip-rule="nonzero" d="M 0.914062 0.867188 L 60.988281 0.867188 L 60.988281 6.132812 L 0.914062 6.132812 Z M 0.914062 0.867188"/></clipPath><clipPath id="c3315c3529"><path clip-rule="nonzero" d="M 3.164062 0.867188 L 58.734375 0.867188 C 59.976562 0.867188 60.984375 1.875 60.984375 3.117188 L 60.984375 3.882812 C 60.984375 5.125 59.976562 6.132812 58.734375 6.132812 L 3.164062 6.132812 C 1.921875 6.132812 0.914062 5.125 0.914062 3.882812 L 0.914062 3.117188 C 0.914062 1.875 1.921875 0.867188 3.164062 0.867188 Z M 3.164062 0.867188"/></clipPath><clipPath id="bd0d68bab4"><rect height="7" y="0" width="61" x="0"/></clipPath><clipPath id="e74fc347a9"><path clip-rule="nonzero" d="M 29.835938 60.753906 L 60.671875 60.753906 L 60.671875 66.019531 L 29.835938 66.019531 Z M 29.835938 60.753906"/></clipPath><clipPath id="70478a3783"><path clip-rule="nonzero" d="M 32.46875 60.753906 L 58.03125 60.753906 C 59.484375 60.753906 60.664062 61.933594 60.664062 63.386719 C 60.664062 64.84375 59.484375 66.019531 58.03125 66.019531 L 32.46875 66.019531 C 31.011719 66.019531 29.835938 64.84375 29.835938 63.386719 C 29.835938 61.933594 31.011719 60.753906 32.46875 60.753906 Z M 32.46875 60.753906"/></clipPath><clipPath id="685bc668eb"><path clip-rule="nonzero" d="M 0.835938 0.753906 L 31.671875 0.753906 L 31.671875 6.019531 L 0.835938 6.019531 Z M 0.835938 0.753906"/></clipPath><clipPath id="b414a6eb2a"><path clip-rule="nonzero" d="M 3.46875 0.753906 L 29.03125 0.753906 C 30.484375 0.753906 31.664062 1.933594 31.664062 3.386719 C 31.664062 4.84375 30.484375 6.019531 29.03125 6.019531 L 3.46875 6.019531 C 2.011719 6.019531 0.835938 4.84375 0.835938 3.386719 C 0.835938 1.933594 2.011719 0.753906 3.46875 0.753906 Z M 3.46875 0.753906"/></clipPath><clipPath id="16b38a51c4"><rect height="7" y="0" width="32" x="0"/></clipPath><clipPath id="df004e7fed"><path clip-rule="nonzero" d="M 34.648438 71.148438 L 60.671875 71.148438 L 60.671875 76.414062 L 34.648438 76.414062 Z M 34.648438 71.148438"/></clipPath><clipPath id="ad3934933a"><path clip-rule="nonzero" d="M 37.28125 71.148438 L 58.03125 71.148438 C 59.484375 71.148438 60.664062 72.324219 60.664062 73.78125 C 60.664062 75.234375 59.484375 76.414062 58.03125 76.414062 L 37.28125 76.414062 C 35.824219 76.414062 34.648438 75.234375 34.648438 73.78125 C 34.648438 72.324219 35.824219 71.148438 37.28125 71.148438 Z M 37.28125 71.148438"/></clipPath><clipPath id="47aa913099"><path clip-rule="nonzero" d="M 0.648438 0.148438 L 26.671875 0.148438 L 26.671875 5.414062 L 0.648438 5.414062 Z M 0.648438 0.148438"/></clipPath><clipPath id="f816c6653f"><path clip-rule="nonzero" d="M 3.28125 0.148438 L 24.03125 0.148438 C 25.484375 0.148438 26.664062 1.324219 26.664062 2.78125 C 26.664062 4.234375 25.484375 5.414062 24.03125 5.414062 L 3.28125 5.414062 C 1.824219 5.414062 0.648438 4.234375 0.648438 2.78125 C 0.648438 1.324219 1.824219 0.148438 3.28125 0.148438 Z M 3.28125 0.148438"/></clipPath><clipPath id="1b1cadfd42"><rect height="6" y="0" width="27" x="0"/></clipPath><clipPath id="f91fab746c"><path clip-rule="nonzero" d="M 67.898438 60.753906 L 98.328125 60.753906 L 98.328125 66.019531 L 67.898438 66.019531 Z M 67.898438 60.753906"/></clipPath><clipPath id="4c482f83ea"><path clip-rule="nonzero" d="M 70.53125 60.753906 L 95.6875 60.753906 C 97.140625 60.753906 98.320312 61.933594 98.320312 63.386719 C 98.320312 64.84375 97.140625 66.019531 95.6875 66.019531 L 70.53125 66.019531 C 69.078125 66.019531 67.898438 64.84375 67.898438 63.386719 C 67.898438 61.933594 69.078125 60.753906 70.53125 60.753906 Z M 70.53125 60.753906"/></clipPath><clipPath id="a07d2c0d18"><path clip-rule="nonzero" d="M 0.898438 0.753906 L 31.328125 0.753906 L 31.328125 6.019531 L 0.898438 6.019531 Z M 0.898438 0.753906"/></clipPath><clipPath id="165772bb5a"><path clip-rule="nonzero" d="M 3.53125 0.753906 L 28.6875 0.753906 C 30.140625 0.753906 31.320312 1.933594 31.320312 3.386719 C 31.320312 4.84375 30.140625 6.019531 28.6875 6.019531 L 3.53125 6.019531 C 2.078125 6.019531 0.898438 4.84375 0.898438 3.386719 C 0.898438 1.933594 2.078125 0.753906 3.53125 0.753906 Z M 3.53125 0.753906"/></clipPath><clipPath id="6f8b2e6701"><rect height="7" y="0" width="32" x="0"/></clipPath><clipPath id="5a571bc9cd"><path clip-rule="nonzero" d="M 64.507812 71.148438 L 90.964844 71.148438 L 90.964844 76.414062 L 64.507812 76.414062 Z M 64.507812 71.148438"/></clipPath><clipPath id="dc614ab1c1"><path clip-rule="nonzero" d="M 67.140625 71.148438 L 88.328125 71.148438 C 89.785156 71.148438 90.960938 72.324219 90.960938 73.78125 C 90.960938 75.234375 89.785156 76.414062 88.328125 76.414062 L 67.140625 76.414062 C 65.6875 76.414062 64.507812 75.234375 64.507812 73.78125 C 64.507812 72.324219 65.6875 71.148438 67.140625 71.148438 Z M 67.140625 71.148438"/></clipPath><clipPath id="895ce3cd78"><path clip-rule="nonzero" d="M 0.507812 0.148438 L 26.964844 0.148438 L 26.964844 5.414062 L 0.507812 5.414062 Z M 0.507812 0.148438"/></clipPath><clipPath id="820bef3cd0"><path clip-rule="nonzero" d="M 3.140625 0.148438 L 24.328125 0.148438 C 25.785156 0.148438 26.960938 1.324219 26.960938 2.78125 C 26.960938 4.234375 25.785156 5.414062 24.328125 5.414062 L 3.140625 5.414062 C 1.6875 5.414062 0.507812 4.234375 0.507812 2.78125 C 0.507812 1.324219 1.6875 0.148438 3.140625 0.148438 Z M 3.140625 0.148438"/></clipPath><clipPath id="a074d9b16e"><rect height="6" y="0" width="27" x="0"/></clipPath><clipPath id="d31abd7cdc"><rect height="48" y="0" width="94" x="0"/></clipPath><clipPath id="b435d47aee"><path clip-rule="nonzero" d="M 212 30 L 342.039062 30 L 342.039062 78 L 212 78 Z M 212 30"/></clipPath><clipPath id="30b9d2eb27"><rect height="48" y="0" width="131" x="0"/></clipPath><clipPath id="fdcf7f87d3"><rect height="85" y="0" width="343" x="0"/></clipPath></defs><g transform="matrix(1, 0, 0, 1, 17, 145)"><g clip-path="url(#fdcf7f87d3)"><g clip-path="url(#ae4f1c7c8c)"><g clip-path="url(#9aef833c06)"><g clip-path="url(#29581a335e)"><g transform="matrix(1, 0, 0, 1, 111, 6)"><g clip-path="url(#b72c9f4fb1)"><g clip-path="url(#0b3ec0cd0d)"><g clip-path="url(#bdd5a12489)"><g clip-path="url(#fb4b035083)"><path fill-rule="nonzero" fill-opacity="1" d="M 10.710938 -5.40625 L 18.09375 5.84375 L 8.265625 12.292969 L 0.886719 1.042969 Z M 10.710938 -5.40625" fill="#f89816"/></g></g></g></g></g></g></g></g><g clip-path="url(#bee3a20e59)"><g clip-path="url(#7886ac7f75)"><g clip-path="url(#068e22d354)"><g transform="matrix(1, 0, 0, 1, 97, 6)"><g clip-path="url(#5ecf47cb50)"><g clip-path="url(#5c2012706d)"><g clip-path="url(#2889ac8b10)"><g clip-path="url(#2fa4c1f2eb)"><path fill-rule="nonzero" fill-opacity="1" d="M 17.800781 -2.125 L 26.324219 11.078125 L 6.414062 23.929688 L -2.109375 10.722656 Z M 17.800781 -2.125" fill="#f89816"/></g></g></g></g></g></g></g></g><g clip-path="url(#cb2b5806ff)"><g clip-path="url(#5ec4b854f8)"><g clip-path="url(#9f35fa17fa)"><g transform="matrix(1, 0, 0, 1, 4, 66)"><g clip-path="url(#1379e35d8f)"><g clip-path="url(#15250b6bfb)"><g clip-path="url(#debefde408)"><g clip-path="url(#ebc2e68edd)"><path fill-rule="nonzero" fill-opacity="1" d="M 0.738281 7.4375 L 16.101562 -2.746094 L 23.300781 8.117188 L 7.9375 18.300781 Z M 0.738281 7.4375" fill="#f89816"/></g></g></g></g></g></g></g></g><g clip-path="url(#177c0239b2)"><g clip-path="url(#477710f614)"><g clip-path="url(#9ca35da66d)"><g transform="matrix(1, 0, 0, 1, 1, 76)"><g clip-path="url(#5edac103f7)"><g clip-path="url(#f75e85f35e)"><g clip-path="url(#cdd38ac90d)"><g clip-path="url(#3d22356cc8)"><path fill-rule="nonzero" fill-opacity="1" d="M 1.359375 -0.167969 L 4.933594 1.105469 L 3.980469 3.789062 L 0.402344 2.519531 Z M 1.359375 -0.167969" fill="#f89816"/></g></g></g></g></g></g></g></g><g clip-path="url(#b0656ac8c3)"><g clip-path="url(#3f4856910a)"><g clip-path="url(#a763353f3e)"><g transform="matrix(1, 0, 0, 1, 3, 80)"><g clip-path="url(#0e3acc1526)"><g clip-path="url(#83e57623b4)"><g clip-path="url(#1adaa50bbd)"><g clip-path="url(#77ee541f15)"><path fill-rule="nonzero" fill-opacity="1" d="M 1.210938 -0.207031 L 5.289062 1.242188 L 4.199219 4.304688 L 0.121094 2.851562 Z M 1.210938 -0.207031" fill="#f89816"/></g></g></g></g></g></g></g></g><g clip-path="url(#d1697c4f5f)"><g clip-path="url(#81b91ab225)"><g clip-path="url(#06069ce2de)"><g transform="matrix(1, 0, 0, 1, 5, 76)"><g clip-path="url(#3dfc4d9610)"><g clip-path="url(#df57fc7313)"><g clip-path="url(#60e52db6d5)"><g clip-path="url(#0278ffcd84)"><path fill-rule="nonzero" fill-opacity="1" d="M 1.988281 -0.167969 L 6.796875 1.542969 L 5.515625 5.15625 L 0.703125 3.445312 Z M 1.988281 -0.167969" fill="#f89816"/></g></g></g></g></g></g></g></g><g clip-path="url(#d4e8169e40)"><g clip-path="url(#d7b764b857)"><g clip-path="url(#df35ee0500)"><g transform="matrix(1, 0, 0, 1, 0, 79)"><g clip-path="url(#db9381e447)"><g clip-path="url(#ccf9384eb9)"><g clip-path="url(#c4f9171ea7)"><g clip-path="url(#2c06f6bff1)"><path fill-rule="nonzero" fill-opacity="1" d="M 1.003906 0.695312 L 3.117188 1.449219 L 2.554688 3.035156 L 0.4375 2.285156 Z M 1.003906 0.695312" fill="#f89816"/></g></g></g></g></g></g></g></g><g clip-path="url(#ececc5c8c0)"><g clip-path="url(#b0350d9645)"><g transform="matrix(1, 0, 0, 1, 16, 12)"><g clip-path="url(#c3b4d05fa9)"><g clip-path="url(#e5e4fbda1c)"><g clip-path="url(#6f9493b83e)"><path fill-rule="nonzero" fill-opacity="1" d="M 0.0195312 0.800781 L 95.933594 0.800781 L 95.933594 64.414062 L 0.0195312 64.414062 Z M 0.0195312 0.800781" fill="#622ad1"/></g></g></g></g></g></g><g clip-path="url(#a502bd5b24)"><g clip-path="url(#6e5f012ef3)"><g transform="matrix(1, 0, 0, 1, 25, 53)"><g clip-path="url(#765cb08630)"><g clip-path="url(#a1dfb4c443)"><g clip-path="url(#1665d0d209)"><path fill-rule="nonzero" fill-opacity="1" d="M 0.539062 0.113281 L 77.308594 0.113281 L 77.308594 31.40625 L 0.539062 31.40625 Z M 0.539062 0.113281" fill="#f89816"/></g></g></g></g></g></g><g clip-path="url(#7c7a54e8cb)"><g clip-path="url(#862d922f3e)"><g transform="matrix(1, 0, 0, 1, 35, 2)"><g clip-path="url(#9f3d5338ea)"><g clip-path="url(#4767da6fe4)"><g clip-path="url(#7aeb82b287)"><path fill-rule="nonzero" fill-opacity="1" d="M 0.792969 0.9375 L 57.109375 0.9375 L 57.109375 25.5 L 0.792969 25.5 Z M 0.792969 0.9375" fill="#844cf0"/></g></g></g></g></g></g><g clip-path="url(#a7208f7354)"><g clip-path="url(#c4822533af)"><g transform="matrix(1, 0, 0, 1, 33, 24)"><g clip-path="url(#bd0d68bab4)"><g clip-path="url(#6b86d101df)"><g clip-path="url(#c3315c3529)"><path fill-rule="nonzero" fill-opacity="1" d="M 0.914062 0.867188 L 60.988281 0.867188 L 60.988281 6.132812 L 0.914062 6.132812 Z M 0.914062 0.867188" fill="#844cf0"/></g></g></g></g></g></g><g clip-path="url(#e74fc347a9)"><g clip-path="url(#70478a3783)"><g transform="matrix(1, 0, 0, 1, 29, 60)"><g clip-path="url(#16b38a51c4)"><g clip-path="url(#685bc668eb)"><g clip-path="url(#b414a6eb2a)"><path fill-rule="nonzero" fill-opacity="1" d="M 0.835938 0.753906 L 31.671875 0.753906 L 31.671875 6.019531 L 0.835938 6.019531 Z M 0.835938 0.753906" fill="#ffffff"/></g></g></g></g></g></g><g clip-path="url(#df004e7fed)"><g clip-path="url(#ad3934933a)"><g transform="matrix(1, 0, 0, 1, 34, 71)"><g clip-path="url(#1b1cadfd42)"><g clip-path="url(#47aa913099)"><g clip-path="url(#f816c6653f)"><path fill-rule="nonzero" fill-opacity="1" d="M 0.648438 0.148438 L 26.671875 0.148438 L 26.671875 5.414062 L 0.648438 5.414062 Z M 0.648438 0.148438" fill="#ffffff"/></g></g></g></g></g></g><g clip-path="url(#f91fab746c)"><g clip-path="url(#4c482f83ea)"><g transform="matrix(1, 0, 0, 1, 67, 60)"><g clip-path="url(#6f8b2e6701)"><g clip-path="url(#a07d2c0d18)"><g clip-path="url(#165772bb5a)"><path fill-rule="nonzero" fill-opacity="1" d="M 0.898438 0.753906 L 31.328125 0.753906 L 31.328125 6.019531 L 0.898438 6.019531 Z M 0.898438 0.753906" fill="#ffffff"/></g></g></g></g></g></g><g clip-path="url(#5a571bc9cd)"><g clip-path="url(#dc614ab1c1)"><g transform="matrix(1, 0, 0, 1, 64, 71)"><g clip-path="url(#a074d9b16e)"><g clip-path="url(#895ce3cd78)"><g clip-path="url(#820bef3cd0)"><path fill-rule="nonzero" fill-opacity="1" d="M 0.507812 0.148438 L 26.964844 0.148438 L 26.964844 5.414062 L 0.507812 5.414062 Z M 0.507812 0.148438" fill="#ffffff"/></g></g></g></g></g></g><g transform="matrix(1, 0, 0, 1, 119, 30)"><g clip-path="url(#d31abd7cdc)"><g fill-opacity="1" fill="#f89816"><g transform="translate(0.166348, 34.729528)"><g><path d="M 2.21875 -30.4375 L 13.3125 -30.4375 C 16.414062 -30.4375 18.925781 -29.632812 20.84375 -28.03125 C 22.757812 -26.4375 23.71875 -24.113281 23.71875 -21.0625 C 23.71875 -18.007812 22.742188 -15.613281 20.796875 -13.875 C 18.859375 -12.144531 16.363281 -11.28125 13.3125 -11.28125 L 9.15625 -11.28125 L 9.15625 0 L 2.21875 0 Z M 9.15625 -16.828125 L 11.109375 -16.828125 C 12.648438 -16.828125 13.921875 -17.140625 14.921875 -17.765625 C 15.921875 -18.390625 16.421875 -19.414062 16.421875 -20.84375 C 16.421875 -22.289062 15.921875 -23.328125 14.921875 -23.953125 C 13.921875 -24.585938 12.648438 -24.90625 11.109375 -24.90625 L 9.15625 -24.90625 Z M 9.15625 -16.828125"/></g></g></g><g fill-opacity="1" fill="#f89816"><g transform="translate(23.80707, 34.729528)"><g><path d="M 2.21875 0 L 2.21875 -18.921875 L 8.75 -18.921875 L 8.75 -16.1875 L 8.8125 -16.1875 C 8.863281 -16.289062 8.941406 -16.414062 9.046875 -16.5625 C 9.160156 -16.707031 9.398438 -16.960938 9.765625 -17.328125 C 10.140625 -17.703125 10.535156 -18.035156 10.953125 -18.328125 C 11.367188 -18.628906 11.910156 -18.894531 12.578125 -19.125 C 13.242188 -19.363281 13.921875 -19.484375 14.609375 -19.484375 C 15.316406 -19.484375 16.015625 -19.382812 16.703125 -19.1875 C 17.398438 -18.988281 17.90625 -18.789062 18.21875 -18.59375 L 18.734375 -18.296875 L 16.015625 -12.765625 C 15.203125 -13.453125 14.066406 -13.796875 12.609375 -13.796875 C 11.828125 -13.796875 11.148438 -13.625 10.578125 -13.28125 C 10.015625 -12.9375 9.613281 -12.515625 9.375 -12.015625 C 9.144531 -11.523438 8.984375 -11.109375 8.890625 -10.765625 C 8.796875 -10.421875 8.75 -10.148438 8.75 -9.953125 L 8.75 0 Z M 2.21875 0"/></g></g></g><g fill-opacity="1" fill="#f89816"><g transform="translate(42.174025, 34.729528)"><g><path d="M 2.84375 -29.46875 C 3.601562 -30.238281 4.507812 -30.625 5.5625 -30.625 C 6.625 -30.625 7.535156 -30.238281 8.296875 -29.46875 C 9.054688 -28.707031 9.4375 -27.796875 9.4375 -26.734375 C 9.4375 -25.679688 9.054688 -24.773438 8.296875 -24.015625 C 7.535156 -23.253906 6.625 -22.875 5.5625 -22.875 C 4.507812 -22.875 3.601562 -23.253906 2.84375 -24.015625 C 2.082031 -24.773438 1.703125 -25.679688 1.703125 -26.734375 C 1.703125 -27.796875 2.082031 -28.707031 2.84375 -29.46875 Z M 2.21875 -18.921875 L 2.21875 0 L 8.75 0 L 8.75 -18.921875 Z M 2.21875 -18.921875"/></g></g></g><g fill-opacity="1" fill="#f89816"><g transform="translate(53.312202, 34.729528)"><g><path d="M 2.21875 0 L 2.21875 -18.921875 L 8.75 -18.921875 L 8.75 -16.9375 L 8.8125 -16.9375 C 10.507812 -18.632812 12.316406 -19.484375 14.234375 -19.484375 C 15.171875 -19.484375 16.097656 -19.359375 17.015625 -19.109375 C 17.941406 -18.859375 18.828125 -18.472656 19.671875 -17.953125 C 20.523438 -17.441406 21.21875 -16.710938 21.75 -15.765625 C 22.28125 -14.816406 22.546875 -13.71875 22.546875 -12.46875 L 22.546875 0 L 16.015625 0 L 16.015625 -10.703125 C 16.015625 -11.679688 15.695312 -12.539062 15.0625 -13.28125 C 14.4375 -14.019531 13.617188 -14.390625 12.609375 -14.390625 C 11.628906 -14.390625 10.738281 -14.003906 9.9375 -13.234375 C 9.144531 -12.472656 8.75 -11.628906 8.75 -10.703125 L 8.75 0 Z M 2.21875 0"/></g></g></g><g fill-opacity="1" fill="#f89816"><g transform="translate(77.469481, 34.729528)"><g><path d="M 3.3125 -18.921875 L 3.3125 -25.96875 L 9.84375 -25.96875 L 9.84375 -18.921875 L 13.828125 -18.921875 L 13.828125 -13.9375 L 9.84375 -13.9375 L 9.84375 -7.9375 C 9.84375 -6.1875 10.335938 -5.3125 11.328125 -5.3125 C 11.566406 -5.3125 11.820312 -5.359375 12.09375 -5.453125 C 12.363281 -5.554688 12.578125 -5.65625 12.734375 -5.75 L 12.953125 -5.90625 L 14.578125 -0.625 C 13.171875 0.15625 11.570312 0.546875 9.78125 0.546875 C 8.550781 0.546875 7.492188 0.332031 6.609375 -0.09375 C 5.722656 -0.519531 5.050781 -1.097656 4.59375 -1.828125 C 4.132812 -2.554688 3.804688 -3.316406 3.609375 -4.109375 C 3.410156 -4.910156 3.3125 -5.765625 3.3125 -6.671875 L 3.3125 -13.9375 L 0.59375 -13.9375 L 0.59375 -18.921875 Z M 3.3125 -18.921875"/></g></g></g></g></g><g clip-path="url(#b435d47aee)"><g transform="matrix(1, 0, 0, 1, 212, 30)"><g clip-path="url(#30b9d2eb27)"><g fill-opacity="1" fill="#622ad1"><g transform="translate(0.961327, 34.729528)"><g><path d="M 2.21875 -30.4375 L 13.09375 -30.4375 C 16.019531 -30.4375 18.40625 -29.65625 20.25 -28.09375 C 22.09375 -26.53125 23.015625 -24.296875 23.015625 -21.390625 C 23.015625 -19.160156 22.453125 -17.285156 21.328125 -15.765625 C 20.210938 -14.253906 18.695312 -13.191406 16.78125 -12.578125 L 27.265625 0 L 18.4375 0 L 9.15625 -12.03125 L 9.15625 0 L 2.21875 0 Z M 9.15625 -16.9375 L 9.953125 -16.9375 C 10.597656 -16.9375 11.140625 -16.945312 11.578125 -16.96875 C 12.023438 -16.988281 12.53125 -17.070312 13.09375 -17.21875 C 13.65625 -17.375 14.109375 -17.585938 14.453125 -17.859375 C 14.804688 -18.128906 15.101562 -18.519531 15.34375 -19.03125 C 15.59375 -19.550781 15.71875 -20.179688 15.71875 -20.921875 C 15.71875 -21.660156 15.59375 -22.285156 15.34375 -22.796875 C 15.101562 -23.316406 14.804688 -23.710938 14.453125 -23.984375 C 14.109375 -24.253906 13.65625 -24.460938 13.09375 -24.609375 C 12.53125 -24.753906 12.023438 -24.835938 11.578125 -24.859375 C 11.140625 -24.890625 10.597656 -24.90625 9.953125 -24.90625 L 9.15625 -24.90625 Z M 9.15625 -16.9375"/></g></g></g><g fill-opacity="1" fill="#622ad1"><g transform="translate(26.483031, 34.729528)"><g><path d="M 4 -2.25 C 1.894531 -4.113281 0.84375 -6.507812 0.84375 -9.4375 C 0.84375 -12.363281 1.9375 -14.769531 4.125 -16.65625 C 6.320312 -18.539062 9.03125 -19.484375 12.25 -19.484375 C 15.414062 -19.484375 18.085938 -18.535156 20.265625 -16.640625 C 22.441406 -14.742188 23.53125 -12.34375 23.53125 -9.4375 C 23.53125 -6.539062 22.46875 -4.148438 20.34375 -2.265625 C 18.21875 -0.390625 15.519531 0.546875 12.25 0.546875 C 8.851562 0.546875 6.101562 -0.382812 4 -2.25 Z M 9.046875 -12.65625 C 8.203125 -11.820312 7.78125 -10.75 7.78125 -9.4375 C 7.78125 -8.132812 8.1875 -7.070312 9 -6.25 C 9.8125 -5.425781 10.878906 -5.015625 12.203125 -5.015625 C 13.484375 -5.015625 14.535156 -5.429688 15.359375 -6.265625 C 16.179688 -7.109375 16.59375 -8.164062 16.59375 -9.4375 C 16.59375 -10.75 16.171875 -11.820312 15.328125 -12.65625 C 14.484375 -13.488281 13.441406 -13.90625 12.203125 -13.90625 C 10.953125 -13.90625 9.898438 -13.488281 9.046875 -12.65625 Z M 9.046875 -12.65625"/></g></g></g><g fill-opacity="1" fill="#622ad1"><g transform="translate(50.861659, 34.729528)"><g><path d="M 12.28125 -14.125 C 11.050781 -14.125 9.992188 -13.671875 9.109375 -12.765625 C 8.222656 -11.859375 7.78125 -10.765625 7.78125 -9.484375 C 7.78125 -8.179688 8.222656 -7.070312 9.109375 -6.15625 C 9.992188 -5.25 11.050781 -4.796875 12.28125 -4.796875 C 12.875 -4.796875 13.429688 -4.867188 13.953125 -5.015625 C 14.484375 -5.160156 14.875 -5.304688 15.125 -5.453125 L 15.453125 -5.6875 L 17.671875 -1.140625 C 17.492188 -1.015625 17.25 -0.859375 16.9375 -0.671875 C 16.632812 -0.492188 15.9375 -0.25 14.84375 0.0625 C 13.75 0.382812 12.578125 0.546875 11.328125 0.546875 C 8.546875 0.546875 6.101562 -0.425781 4 -2.375 C 1.894531 -4.332031 0.84375 -6.675781 0.84375 -9.40625 C 0.84375 -12.15625 1.894531 -14.519531 4 -16.5 C 6.101562 -18.488281 8.546875 -19.484375 11.328125 -19.484375 C 12.578125 -19.484375 13.726562 -19.332031 14.78125 -19.03125 C 15.84375 -18.738281 16.597656 -18.445312 17.046875 -18.15625 L 17.671875 -17.703125 L 15.453125 -13.25 C 14.640625 -13.832031 13.582031 -14.125 12.28125 -14.125 Z M 12.28125 -14.125"/></g></g></g><g fill-opacity="1" fill="#622ad1"><g transform="translate(68.970421, 34.729528)"><g><path d="M 23.828125 -18.921875 L 14.828125 -9.890625 L 24.71875 0 L 16.3125 0 L 8.75 -7.5625 L 8.75 0 L 2.21875 0 L 2.21875 -31.71875 L 8.75 -31.71875 L 8.75 -12.328125 L 15.34375 -18.921875 Z M 23.828125 -18.921875"/></g></g></g><g fill-opacity="1" fill="#622ad1"><g transform="translate(91.873522, 34.729528)"><g><path d="M 21.359375 -8.5625 L 7.640625 -8.5625 C 7.640625 -7.226562 8.066406 -6.238281 8.921875 -5.59375 C 9.785156 -4.957031 10.722656 -4.640625 11.734375 -4.640625 C 12.785156 -4.640625 13.617188 -4.78125 14.234375 -5.0625 C 14.847656 -5.351562 15.550781 -5.914062 16.34375 -6.75 L 21.0625 -4.390625 C 19.09375 -1.097656 15.820312 0.546875 11.25 0.546875 C 8.394531 0.546875 5.945312 -0.425781 3.90625 -2.375 C 1.863281 -4.332031 0.84375 -6.6875 0.84375 -9.4375 C 0.84375 -12.195312 1.863281 -14.5625 3.90625 -16.53125 C 5.945312 -18.5 8.394531 -19.484375 11.25 -19.484375 C 14.25 -19.484375 16.6875 -18.613281 18.5625 -16.875 C 20.445312 -15.144531 21.390625 -12.664062 21.390625 -9.4375 C 21.390625 -9 21.378906 -8.707031 21.359375 -8.5625 Z M 7.828125 -12.171875 L 15.015625 -12.171875 C 14.867188 -13.160156 14.476562 -13.914062 13.84375 -14.4375 C 13.21875 -14.96875 12.414062 -15.234375 11.4375 -15.234375 C 10.351562 -15.234375 9.488281 -14.945312 8.84375 -14.375 C 8.207031 -13.8125 7.867188 -13.078125 7.828125 -12.171875 Z M 7.828125 -12.171875"/></g></g></g><g fill-opacity="1" fill="#622ad1"><g transform="translate(113.928554, 34.729528)"><g><path d="M 3.3125 -18.921875 L 3.3125 -25.96875 L 9.84375 -25.96875 L 9.84375 -18.921875 L 13.828125 -18.921875 L 13.828125 -13.9375 L 9.84375 -13.9375 L 9.84375 -7.9375 C 9.84375 -6.1875 10.335938 -5.3125 11.328125 -5.3125 C 11.566406 -5.3125 11.820312 -5.359375 12.09375 -5.453125 C 12.363281 -5.554688 12.578125 -5.65625 12.734375 -5.75 L 12.953125 -5.90625 L 14.578125 -0.625 C 13.171875 0.15625 11.570312 0.546875 9.78125 0.546875 C 8.550781 0.546875 7.492188 0.332031 6.609375 -0.09375 C 5.722656 -0.519531 5.050781 -1.097656 4.59375 -1.828125 C 4.132812 -2.554688 3.804688 -3.316406 3.609375 -4.109375 C 3.410156 -4.910156 3.3125 -5.765625 3.3125 -6.671875 L 3.3125 -13.9375 L 0.59375 -13.9375 L 0.59375 -18.921875 Z M 3.3125 -18.921875"/></g></g></g></g></g></g></g></g></svg>